<svg width="311" height="37" viewBox="0 0 311 37" fill="none" xmlns="http://www.w3.org/2000/svg">
<path d="M13.2 36.4C10.3 36.4 7.8 35.9333 5.7 35C3.63333 34.0333 1.73333 32.5833 0 30.65L5.1 25.6C6.23333 26.9 7.48333 27.9167 8.85 28.65C10.25 29.35 11.8667 29.7 13.7 29.7C15.3667 29.7 16.65 29.4 17.55 28.8C18.4833 28.2 18.95 27.3667 18.95 26.3C18.95 25.3333 18.65 24.55 18.05 23.95C17.45 23.35 16.65 22.8333 15.65 22.4C14.6833 21.9667 13.6 21.55 12.4 21.15C11.2333 20.75 10.0667 20.3 8.9 19.8C7.73333 19.2667 6.65 18.6167 5.65 17.85C4.68333 17.05 3.9 16.0667 3.3 14.9C2.7 13.7 2.4 12.2 2.4 10.4C2.4 8.23334 2.91667 6.36667 3.95 4.8C5.01667 3.23333 6.48333 2.05 8.35 1.25C10.2167 0.416666 12.3667 0 14.8 0C17.2667 0 19.5167 0.433333 21.55 1.3C23.6167 2.16667 25.3167 3.35 26.65 4.85L21.55 9.9C20.4833 8.8 19.4 7.98333 18.3 7.45C17.2333 6.91667 16.0167 6.65 14.65 6.65C13.2833 6.65 12.2 6.91667 11.4 7.45C10.6 7.95 10.2 8.68333 10.2 9.65C10.2 10.55 10.5 11.2833 11.1 11.85C11.7 12.3833 12.4833 12.85 13.45 13.25C14.45 13.65 15.5333 14.05 16.7 14.45C17.9 14.85 19.0833 15.3167 20.25 15.85C21.4167 16.3833 22.4833 17.0667 23.45 17.9C24.45 18.7 25.25 19.7333 25.85 21C26.45 22.2333 26.75 23.7667 26.75 25.6C26.75 28.9667 25.55 31.6167 23.15 33.55C20.75 35.45 17.4333 36.4 13.2 36.4Z" fill="#00B389"/>
<path d="M53.1004 35.85L38.8004 17.45L52.6504 0.549999H62.3504L46.7504 18.9V15.7L62.8504 35.85H53.1004ZM31.7504 35.85V0.549999H39.6004V35.85H31.7504Z" fill="#00B389"/>
<path d="M75.1199 22.7L61.5199 0.549999H70.6199L81.0699 18.45H75.2199L85.6699 0.549999H94.5699L80.8699 22.7H75.1199ZM74.1699 35.85V19.1H82.0199V35.85H74.1699Z" fill="#00B389"/>
<path d="M108.05 35.85V1.05H115.9V35.85H108.05ZM97 7.4V0.549999H126.95V7.4H97Z" fill="#EAEFFF"/>
<path d="M134.821 21.3V15.5V10.95C136.387 10.95 145.5 14 145.921 14.2173C145.921 13.4174 145.921 12.3667 145.921 11C145.921 9.73334 145.921 7.65 145.921 6.55C144.5 7.15 136.387 11.85 134.821 11.85V6.65V0.549999H143.221C145.554 0.549999 147.604 0.999999 149.371 1.9C151.137 2.76666 152.521 3.98333 153.521 5.55C154.521 7.11667 155.021 8.91667 155.021 10.95C155.021 13.0167 154.521 14.8333 153.521 16.4C152.521 17.9333 151.121 19.1333 149.321 20C147.521 20.8667 145.404 21.3 142.971 21.3H134.821ZM128.821 35.85V0.549999H136.671V35.85H128.821ZM148.021 35.85L137.021 20.65L144.221 18.7L157.321 35.85H148.021Z" fill="#EAEFFF"/>
<path d="M153.521 27L163.231 0.549999H170.331L184.181 35.85H175.881L165.281 6.55H168.131L160.5 32.7312L153.521 27ZM157.181 23.05H176.431L175.881 35.85L157.181 23.05Z" fill="#EAEFFF"/>
<path d="M202.037 36.95C199.403 36.95 196.953 36.5 194.687 35.6C192.453 34.6667 190.487 33.3667 188.787 31.7C187.12 30.0333 185.82 28.1 184.887 25.9C183.953 23.6667 183.487 21.2667 183.487 18.7C183.487 16.1333 183.953 13.75 184.887 11.55C185.82 9.31665 187.12 7.38332 188.787 5.74998C190.453 4.11665 192.403 2.84998 194.637 1.94998C196.903 1.01665 199.353 0.549984 201.987 0.549984C204.787 0.549984 207.27 0.999984 209.437 1.89998C211.637 2.79998 213.553 4.03332 215.187 5.59998L209.937 10.9C209.003 9.89999 207.87 9.11665 206.537 8.54998C205.237 7.98332 203.72 7.69999 201.987 7.69999C200.453 7.69999 199.037 7.96665 197.737 8.49999C196.47 8.99999 195.37 9.73332 194.437 10.7C193.537 11.6667 192.82 12.8333 192.287 14.2C191.787 15.5667 191.537 17.0667 191.537 18.7C191.537 20.3667 191.787 21.8833 192.287 23.25C192.82 24.6167 193.537 25.7833 194.437 26.75C195.37 27.7167 196.47 28.4667 197.737 29C199.037 29.5333 200.453 29.8 201.987 29.8C203.787 29.8 205.353 29.5167 206.687 28.95C208.02 28.3833 209.17 27.6 210.137 26.6L215.437 31.9C213.737 33.4667 211.787 34.7 209.587 35.6C207.42 36.5 204.903 36.95 202.037 36.95Z" fill="#EAEFFF"/>
<path d="M239.835 35.85L225.535 17.45L239.385 0.549999H249.085L233.485 18.9V15.7L249.585 35.85H239.835ZM218.485 35.85V0.549999H226.335V35.85H218.485Z" fill="#EAEFFF"/>
<path d="M252.935 35.85V0.549999H260.785V35.85H252.935ZM258.935 35.85V29.05H272L278.285 35.85H258.935ZM258.935 21.1V14.55H276.535V21.1H258.935ZM258.935 7.3V0.549999H278.035V7.3H258.935Z" fill="#EAEFFF"/>
<path d="M287.971 21.5222V15.7222V11.1722C289.538 11.1722 298.651 14.2222 299.071 14.4395C299.071 13.6396 299.071 12.5889 299.071 11.2222C299.071 9.95554 299.071 7.8722 299.071 6.7722C297.651 7.3722 289.538 12.0722 287.971 12.0722V6.8722V0.772202H296.371C298.705 0.772202 300.755 1.2222 302.521 2.1222C304.288 2.98887 305.671 4.20554 306.671 5.7722C307.671 7.33887 308.171 9.13887 308.171 11.1722C308.171 13.2389 307.671 15.0555 306.671 16.6222C305.671 18.1555 304.271 19.3555 302.471 20.2222C300.672 21.0889 298.555 21.5222 296.121 21.5222H287.971ZM281.971 36.0722V0.772202H289.822V36.0722H281.971ZM301.171 36.0722L290.171 20.8722L297.371 18.9222L310.471 36.0722H301.171Z" fill="#EAEFFF"/>
</svg>
