<svg width="35" height="32" viewBox="0 0 35 32" fill="none" xmlns="http://www.w3.org/2000/svg">
<path d="M17.6667 16C15.3139 16 13.2998 15.2167 11.6243 13.65C9.94883 12.0833 9.1111 10.2 9.1111 8C9.1111 5.8 9.94883 3.91667 11.6243 2.35C13.2998 0.783333 15.3139 0 17.6667 0C20.0194 0 22.0336 0.783333 23.709 2.35C25.3845 3.91667 26.2222 5.8 26.2222 8C26.2222 10.2 25.3845 12.0833 23.709 13.65C22.0336 15.2167 20.0194 16 17.6667 16ZM0.555542 32V26.4C0.555542 25.2667 0.867463 24.225 1.49131 23.275C2.11515 22.325 2.94397 21.6 3.97776 21.1C6.18795 20.0667 8.43378 19.2917 10.7153 18.775C12.9967 18.2583 15.3139 18 17.6667 18C20.0194 18 22.3366 18.2583 24.618 18.775C26.8995 19.2917 29.1454 20.0667 31.3555 21.1C32.3893 21.6 33.2182 22.325 33.842 23.275C34.4658 24.225 34.7778 25.2667 34.7778 26.4V32H0.555542ZM4.83332 28H30.5V26.4C30.5 26.0333 30.402 25.7 30.2059 25.4C30.0098 25.1 29.7514 24.8667 29.4305 24.7C27.5055 23.8 25.5627 23.125 23.6021 22.675C21.6414 22.225 19.6629 22 17.6667 22C15.6704 22 13.6919 22.225 11.7312 22.675C9.77059 23.125 7.82776 23.8 5.90276 24.7C5.58193 24.8667 5.32348 25.1 5.12742 25.4C4.93135 25.7 4.83332 26.0333 4.83332 26.4V28ZM17.6667 12C18.843 12 19.8501 11.6083 20.6878 10.825C21.5256 10.0417 21.9444 9.1 21.9444 8C21.9444 6.9 21.5256 5.95833 20.6878 5.175C19.8501 4.39167 18.843 4 17.6667 4C16.4903 4 15.4832 4.39167 14.6455 5.175C13.8077 5.95833 13.3889 6.9 13.3889 8C13.3889 9.1 13.8077 10.0417 14.6455 10.825C15.4832 11.6083 16.4903 12 17.6667 12Z" fill="#FEF7FF"/>
</svg>
