<svg width="44" height="40" viewBox="0 0 44 40" fill="none" xmlns="http://www.w3.org/2000/svg">
<path d="M14 16L22 24L30 16M6 2H38C39.0609 2 40.0783 2.42143 40.8284 3.17157C41.5786 3.92172 42 4.93913 42 6V18C42 23.3043 39.8929 28.3914 36.1421 32.1421C32.3914 35.8929 27.3043 38 22 38C19.3736 38 16.7728 37.4827 14.3463 36.4776C11.9198 35.4725 9.71504 33.9993 7.85786 32.1421C4.10714 28.3914 2 23.3043 2 18V6C2 4.93913 2.42143 3.92172 3.17157 3.17157C3.92172 2.42143 4.93913 2 6 2Z" stroke="#F3F3F3" stroke-width="4" stroke-linecap="round" stroke-linejoin="round"/>
</svg>
