<svg width="84" height="60" viewBox="0 0 84 60" fill="none" xmlns="http://www.w3.org/2000/svg">
<path d="M13.2 36.3999C10.3 36.3999 7.8 35.9332 5.7 34.9999C3.63333 34.0332 1.73333 32.5832 0 30.6499L5.1 25.5999C6.23333 26.8999 7.48333 27.9166 8.85 28.6499C10.25 29.3499 11.8667 29.6999 13.7 29.6999C15.3667 29.6999 16.65 29.3999 17.55 28.7999C18.4833 28.1999 18.95 27.3666 18.95 26.2999C18.95 25.3332 18.65 24.5499 18.05 23.9499C17.45 23.3499 16.65 22.8332 15.65 22.3999C14.6833 21.9666 13.6 21.5499 12.4 21.1499C11.2333 20.7499 10.0667 20.2999 8.9 19.7999C7.73333 19.2666 6.65 18.6166 5.65 17.8499C4.68333 17.0499 3.9 16.0665 3.3 14.8999C2.7 13.6999 2.4 12.1999 2.4 10.3999C2.4 8.23321 2.91667 6.36654 3.95 4.79988C5.01667 3.23321 6.48333 2.04988 8.35 1.24988C10.2167 0.416543 12.3667 -0.00012207 14.8 -0.00012207C17.2667 -0.00012207 19.5167 0.43321 21.55 1.29988C23.6167 2.16654 25.3167 3.34988 26.65 4.84988L21.55 9.89988C20.4833 8.79988 19.4 7.98321 18.3 7.44988C17.2333 6.91655 16.0167 6.64988 14.65 6.64988C13.2833 6.64988 12.2 6.91655 11.4 7.44988C10.6 7.94988 10.2 8.68321 10.2 9.64988C10.2 10.5499 10.5 11.2832 11.1 11.8499C11.7 12.3832 12.4833 12.8499 13.45 13.2499C14.45 13.6499 15.5333 14.0499 16.7 14.4499C17.9 14.8499 19.0833 15.3165 20.25 15.8499C21.4167 16.3832 22.4833 17.0666 23.45 17.8999C24.45 18.6999 25.25 19.7332 25.85 20.9999C26.45 22.2332 26.75 23.7666 26.75 25.5999C26.75 28.9666 25.55 31.6166 23.15 33.5499C20.75 35.4499 17.4333 36.3999 13.2 36.3999Z" fill="#00B389"/>
<path d="M44.65 35.5722V0.772178H52.5V35.5722H44.65ZM33.6 7.12218V0.272179C57.8641 209.671 53.7421 31.7361 63.55 0.272179V7.12218H33.6Z" fill="#EAEFFF"/>
</svg>
